<?xml version="1.0" encoding="UTF-8"?>
<svg id="_图层_2" data-name="图层 2" xmlns="http://www.w3.org/2000/svg" viewBox="0 0 689.71 689.73">
  <defs>
    <style>
      .cls-1 {
        fill: #e7211a;
      }
    </style>
  </defs>
  <g id="_图层_1-2" data-name="图层 1">
    <g>
      <path class="cls-1" d="M344.86,0C154.4,0,0,154.41,0,344.87s154.4,344.86,344.86,344.86,344.86-154.4,344.86-344.86S535.32,0,344.86,0M344.86,632.25c-158.72,0-287.38-128.66-287.38-287.37S186.14,57.48,344.86,57.48s287.38,128.67,287.38,287.39-128.66,287.37-287.38,287.37"/>
      <path class="cls-1" d="M316.59,380.85c-.82-4.67-3.03-8.73-6.13-11.86l.02-.02c-4.65-5-6.15-12.45-3.32-19.1l-.07-.03c1.32-2.85,2.11-6.01,2.11-9.37,0-12.41-10.06-22.47-22.47-22.47h-32.3c-21.02,0-38.06-17.03-38.08-38.05v-25.41s0,0,0,0c0-28.05-22.73-50.77-50.77-50.77-3.5,0-6.35,2.84-6.35,6.34,0,3.26,1.24,6.5,3.72,8.98,5.99,5.99,8.99,13.84,8.99,21.69h0v26.45c0,21.03-8.53,40.07-22.31,53.86h0c-3.03,3.01-5.31,6.5-6.85,10.22-1.54,3.72-3.8,7.21-6.83,10.23-3.03,3.03-6.52,5.29-10.24,6.84-3.72,1.54-7.79,2.42-12.07,2.42h-20.08c1.11,48,15.65,92.66,40.04,130.38,5.44.85,10.32,3.39,14.04,7.11,4.59,4.59,10.94,7.44,17.96,7.44h113.43c12.41,0,22.47-10.06,22.47-22.47,0-3.26-.73-6.33-1.97-9.13h.03c-3.03-6.82-1.43-14.5,3.42-19.57l-.02-.02c2.99-3.11,5.12-7.12,5.92-11.68.8-4.58.16-9.07-1.61-13-3.03-6.82-1.43-14.49,3.43-19.57l-.07-.05c4.77-4.99,7.25-12.05,5.97-19.38"/>
      <path class="cls-1" d="M576.09,350.77c-4.28,0-8.35-.87-12.07-2.42-3.72-1.53-7.21-3.8-10.24-6.83-3.03-3.02-5.28-6.51-6.83-10.23-1.54-3.73-3.83-7.21-6.85-10.24h0c-13.78-13.77-22.3-32.82-22.3-53.85v-26.45h-.02c0-7.85,3-15.7,9-21.69,2.47-2.47,3.71-5.72,3.71-8.97,0-3.5-2.84-6.35-6.34-6.35-28.05,0-50.77,22.73-50.77,50.77h0v25.41c-.03,21.02-17.08,38.05-38.09,38.05h-32.3c-12.4,0-22.46,10.06-22.46,22.47,0,3.36.78,6.51,2.1,9.37l-.07.03c2.84,6.65,1.34,14.1-3.31,19.1l.02.02c-3.09,3.14-5.31,7.2-6.13,11.86-1.27,7.32,1.2,14.4,5.97,19.38l-.06.06c4.85,5.07,6.46,12.75,3.42,19.56-1.76,3.94-2.4,8.43-1.61,13,.8,4.57,2.93,8.57,5.92,11.68l-.02.02c4.86,5.07,6.46,12.75,3.43,19.56h.03c-1.25,2.8-1.98,5.88-1.98,9.14,0,12.4,10.06,22.46,22.47,22.46h113.44c7.01,0,13.36-2.84,17.95-7.43,3.72-3.72,8.6-6.27,14.04-7.12,24.39-37.72,38.92-82.38,40.04-130.38h-20.08Z"/>
    </g>
  </g>
</svg>